PathFileType	4	(X/Y/Z)	Run_300 01
DataRate	CameraRate	NumFrames	NumMarkers	Units	OrigDataRate	OrigDataStartFrame	OrigNumFrames
120	120	5	42	mm	120	4	128
Frame#	Time	LASI			LPSI			RPSI			RTH1			RTH2			RTH3			LTH1			LTH2			LTH3			RTB1			RTB2			RTB3			LTB1			LTB2			RCAL			RTOE			RMT5			LCAL			LMT5			LACR			RACR			CLAV			C7			RUA1			RUA2			RUA3			RLEL			RMEL			LUA1			LUA2			LUA3			LLEL			LMEL			RFAsuperior			RFAradius			RFAulna			LFAsuperior			LFAradius			LFAulna			LTB3			LTOE			RASI		
		X1	Y1	Z1	X2	Y2	Z2	X3	Y3	Z3	X4	Y4	Z4	X5	Y5	Z5	X6	Y6	Z6	X7	Y7	Z7	X8	Y8	Z8	X9	Y9	Z9	X10	Y10	Z10	X11	Y11	Z11	X12	Y12	Z12	X13	Y13	Z13	X14	Y14	Z14	X15	Y15	Z15	X16	Y16	Z16	X17	Y17	Z17	X18	Y18	Z18	X19	Y19	Z19	X20	Y20	Z20	X21	Y21	Z21	X22	Y22	Z22	X23	Y23	Z23	X24	Y24	Z24	X25	Y25	Z25	X26	Y26	Z26	X27	Y27	Z27	X28	Y28	Z28	X29	Y29	Z29	X30	Y30	Z30	X31	Y31	Z31	X32	Y32	Z32	X33	Y33	Z33	X34	Y34	Z34	X35	Y35	Z35	X36	Y36	Z36	X37	Y37	Z37	X38	Y38	Z38	X39	Y39	Z39	X40	Y40	Z40	X41	Y41	Z41	X42	Y42	Z42	

4	  0.033333	733.693434	1006.758167	-525.013901	565.790275	1037.748390	-429.556069	567.526887	1041.119571	-343.262059	759.476817	864.894657	-220.141192	874.368872	794.465840	-240.157695	869.890100	655.871103	-224.097158	667.711776	865.104565	-556.583271	695.553253	745.446890	-538.801884	589.841863	626.532047	-528.747262	870.494989	468.010793	-289.803048	792.166775	448.785218	-242.293145	729.382928	358.515442	-313.354774	553.133706	384.325712	-455.624753	465.390266	310.734365	-506.992782	559.230028	350.110141	-334.483750	693.028857	175.634234	-329.057421	644.718542	185.281841	-242.738013	282.026878	166.754632	-437.248531	437.104417	 60.468375	-501.549323	747.019794	1454.617227	-589.636305	679.449128	1481.139073	-220.214058	803.930482	1437.163458	-357.216873	677.060610	1520.198614	-416.798755	619.106474	1397.814258	-155.258308	615.519933	1327.335824	-145.924365	511.482959	1345.976409	-136.107191	506.716050	1260.670948	-85.851290	464.474025	1248.494052	-164.027579	732.808667	1381.597579	-649.314891	674.638033	1310.582830	-651.199768	735.839669	1296.445484	-694.742027	734.439506	1197.459802	-747.797766	686.901864	1140.376176	-694.248039	576.834783	1212.165847	-93.649408	709.282585	1129.709029	-153.686549	658.445234	1082.950511	-157.625091	797.361009	1213.787547	-713.574175	896.474633	1233.765456	-570.908490	922.486589	1178.890348	-598.978355	443.758841	228.146062	-433.542534	476.786558	 73.324486	-420.402518	732.822249	1031.313986	-275.744740	
5	  0.041667	736.055839	1011.736169	-524.622954	568.086377	1044.039745	-430.829509	569.405759	1047.628756	-344.433056	762.672188	873.093721	-220.852170	876.417707	801.362110	-241.078258	870.468690	661.641451	-226.855449	666.834090	870.166074	-556.855070	691.093350	749.503801	-538.227351	580.507808	635.303084	-528.235670	881.178038	470.403756	-291.332988	804.605496	444.517119	-244.426785	750.358846	349.445459	-315.872571	538.736081	393.856756	-457.113906	450.305297	321.506964	-509.392530	582.126019	325.950653	-339.325330	730.540784	164.295039	-329.205945	680.026982	170.560834	-244.125520	267.881907	180.177212	-440.800537	414.534686	 61.588521	-502.386080	750.178660	1462.593854	-587.586329	677.159342	1487.321763	-220.007427	802.882968	1444.324384	-354.829348	677.347187	1526.430432	-415.826184	615.923044	1405.539547	-155.546269	611.911980	1335.031778	-145.455794	507.807911	1354.232148	-137.854285	501.423270	1269.522578	-87.122227	460.746202	1256.860428	-166.044919	736.370321	1390.196444	-647.821018	677.102477	1320.486848	-651.659140	739.205995	1304.548106	-692.802945	736.806545	1205.673765	-746.192629	686.056310	1149.857511	-693.764669	571.586487	1221.306126	-92.975431	705.819718	1139.108716	-149.092755	655.418998	1091.757406	-154.117434	799.039701	1221.354877	-710.619447	894.014402	1241.222306	-565.705457	919.492852	1185.492309	-591.604294	428.929424	237.635273	-436.659751	455.218901	 73.846260	-421.510975	733.599302	1038.470071	-276.836198	
6	  0.050000	738.502148	1016.450791	-524.048015	570.529761	1050.278473	-432.029475	571.329703	1054.096052	-345.495531	765.586812	880.738523	-221.571136	877.991865	807.397152	-241.784840	870.109483	666.458998	-230.010980	666.113086	874.933005	-557.018567	686.760349	753.551635	-537.774763	572.052735	643.681573	-527.901397	891.298422	472.345337	-292.729945	816.771140	439.984618	-246.455727	771.248499	340.489414	-318.253243	525.830827	402.719356	-458.741545	436.406980	331.789940	-511.646508	605.737296	301.938739	-343.833886	768.110806	154.149999	-329.388431	715.770044	156.668740	-245.391422	254.726781	194.284175	-444.001821	392.409422	 63.284681	-503.480772	753.334139	1470.294630	-585.506071	675.057380	1493.199083	-219.755425	801.947363	1451.066894	-352.499236	677.695060	1532.380310	-414.824506	613.004455	1412.842203	-155.735550	608.580434	1342.311806	-145.013970	504.441528	1362.054877	-139.431367	496.523467	1277.931623	-88.249379	457.265102	1264.811419	-167.890883	739.842526	1398.625141	-646.319012	679.412918	1330.285328	-652.136389	742.332409	1312.602047	-691.046386	738.810605	1213.782020	-744.781261	684.947066	1159.221412	-693.564561	566.735477	1230.023877	-92.182033	702.584216	1147.980811	-144.859308	652.597934	1100.138374	-150.475213	800.360723	1228.760793	-707.919802	891.326432	1248.298364	-560.689346	916.166690	1191.839093	-584.917194	415.067915	246.858681	-439.546932	434.139882	 75.160654	-422.674017	734.585152	1045.363263	-277.635910	
7	  0.058333	741.030832	1020.815010	-523.116268	573.154105	1056.374931	-433.101369	573.356308	1060.472284	-346.382580	767.950544	887.322739	-222.254786	878.813597	811.983641	-242.161926	868.341474	669.734350	-233.652146	665.623236	879.294118	-557.033120	682.768456	757.582865	-537.602934	565.142698	651.255456	-527.839974	900.426006	473.535203	-293.999529	828.466749	435.031542	-248.317219	791.885315	331.750009	-320.425116	515.252729	410.420822	-460.507236	424.410329	341.231162	-513.659179	630.358611	278.197698	-347.684401	805.612841	146.061723	-329.699958	752.169295	144.284206	-246.488011	243.154429	209.495428	-446.575222	370.785761	 65.979432	-504.818227	756.459637	1477.480113	-583.385128	673.260210	1498.522520	-219.481869	801.220858	1457.109118	-350.251104	678.143924	1537.833971	-413.778552	610.509249	1419.437413	-155.778227	605.708975	1348.894819	-144.598915	501.573232	1369.141538	-140.715683	492.263875	1285.587244	-89.141596	454.211368	1272.043867	-169.450978	743.157294	1406.716588	-644.813226	681.501547	1339.874012	-652.647555	745.078649	1320.529489	-689.665662	740.227989	1221.660699	-743.687699	683.409291	1168.366873	-693.801605	562.535491	1238.029937	-91.215330	699.758358	1156.029707	-141.102870	650.167932	1107.831477	-146.651070	801.103162	1235.852294	-705.630162	888.281335	1254.761949	-556.038319	912.336080	1197.720728	-579.287444	402.648672	255.658304	-442.053879	413.789265	 77.825862	-423.908295	735.827575	1051.742045	-277.928345	
8	  0.066667	743.529605	1024.940872	-521.652571	575.837773	1062.202588	-434.028330	575.459113	1066.689444	-347.089503	769.506972	892.401131	-222.827174	878.855076	814.882702	-242.255398	865.271200	671.346470	-237.496613	665.367534	883.340372	-556.945162	679.447437	761.561747	-537.865209	560.165296	657.655022	-528.041947	908.292411	473.862859	-295.304680	839.547565	429.635743	-250.005975	811.999710	323.295436	-322.371753	507.016147	416.761852	-462.271183	414.404445	349.731368	-515.390977	655.744094	254.854000	-350.593652	842.625141	140.401300	-330.329024	789.100568	133.862680	-247.467021	233.252519	225.872245	-448.392704	349.283134	 69.938621	-506.042495	759.500296	1483.965784	-581.243064	671.794259	1503.124531	-219.263027	800.760652	1462.333095	-348.081158	678.712341	1542.670236	-412.696094	608.461794	1425.214319	-155.687286	603.355351	1354.666227	-144.178741	499.240984	1375.353694	-141.647367	488.707687	1292.347069	-89.767466	451.665708	1278.396030	-170.674050	746.267346	1414.306863	-643.325490	683.390256	1349.133289	-653.202820	747.416829	1328.178238	-688.783900	741.011209	1229.159338	-742.949904	681.409443	1177.197895	-694.468103	559.056474	1245.203410	-90.094980	697.464555	1163.238427	-137.658342	648.273576	1114.773274	-142.690377	801.222527	1242.480331	-703.775261	884.862826	1260.524084	-551.892543	908.024574	1202.979485	-574.695182	391.537905	264.048884	-444.150722	394.053012	 82.045499	-425.157922	737.193192	1057.375059	-277.666836	
